<?xml version="1.0" standalone="no"?>
<!DOCTYPE svg PUBLIC "-//W3C//DTD SVG 20010904//EN"
 "http://www.w3.org/TR/2001/REC-SVG-20010904/DTD/svg10.dtd">
<svg version="1.0" xmlns="http://www.w3.org/2000/svg"
 width="1280.000000pt" height="1280.000000pt" viewBox="0 0 1280.000000 1280.000000"
 preserveAspectRatio="xMidYMid meet">
<metadata>
Created by potrace 1.14, written by Peter Selinger 2001-2017
</metadata>
<g transform="translate(0.000000,1280.000000) scale(0.100000,-0.100000)"
fill="#000000" stroke="none">
<path d="M2999 12796 c-2 -2 -40 -7 -84 -10 -502 -40 -1043 -229 -1480 -519
-78 -51 -190 -131 -205 -147 -3 -3 -25 -21 -50 -40 -25 -19 -58 -46 -73 -60
-64 -57 -305 -299 -337 -339 -19 -24 -45 -55 -57 -69 -13 -14 -23 -28 -23 -31
0 -3 -18 -26 -40 -51 -22 -25 -40 -48 -40 -52 0 -4 -6 -13 -13 -20 -7 -7 -26
-34 -42 -60 -17 -27 -33 -48 -37 -48 -5 0 -8 -5 -8 -11 0 -6 -19 -41 -43 -77
-24 -37 -50 -82 -58 -99 -7 -18 -18 -33 -22 -33 -5 0 -6 -4 -2 -9 3 -5 1 -12
-5 -16 -11 -7 -80 -147 -80 -164 0 -6 -5 -11 -12 -11 -6 0 -9 -3 -5 -6 3 -4
-1 -21 -10 -38 -10 -17 -17 -33 -18 -36 0 -3 -8 -22 -18 -43 -10 -21 -20 -47
-22 -57 -2 -11 -7 -26 -12 -33 -4 -6 -8 -14 -8 -17 -1 -3 -9 -30 -20 -60 -11
-30 -20 -57 -20 -60 -1 -3 -9 -31 -19 -62 -9 -32 -17 -59 -16 -60 1 -2 -3 -15
-9 -31 -10 -26 -14 -40 -26 -104 -3 -16 -10 -44 -15 -63 -5 -19 -12 -52 -16
-74 -3 -21 -8 -48 -10 -60 -4 -20 -12 -76 -19 -136 -2 -14 -7 -63 -12 -110 -4
-47 -8 -1626 -8 -3510 0 -2815 2 -3441 13 -3515 8 -49 16 -108 19 -130 2 -22
11 -71 18 -110 8 -38 17 -83 20 -100 3 -16 14 -64 25 -105 12 -41 23 -85 26
-97 7 -35 95 -285 110 -315 8 -15 14 -30 13 -33 0 -3 20 -48 45 -100 25 -52
46 -96 46 -98 0 -7 128 -235 158 -281 25 -38 166 -239 184 -261 95 -117 140
-166 264 -290 71 -71 150 -146 173 -165 24 -19 53 -43 65 -52 11 -10 50 -40
86 -68 36 -27 70 -53 75 -58 6 -4 27 -18 48 -31 21 -13 43 -28 50 -35 6 -6 33
-22 60 -36 26 -14 47 -28 47 -32 0 -5 6 -8 14 -8 8 0 16 -3 18 -7 1 -5 26 -19
53 -33 28 -14 52 -27 55 -30 10 -10 157 -80 168 -80 7 0 12 -5 12 -10 0 -6 3
-9 8 -8 4 1 18 -3 32 -9 14 -6 28 -11 33 -12 4 0 22 -8 39 -17 39 -20 243 -94
278 -101 13 -2 30 -9 37 -15 7 -6 13 -8 13 -5 0 4 18 0 40 -8 22 -8 40 -12 40
-10 0 3 11 0 25 -5 14 -5 36 -12 48 -14 12 -2 56 -11 97 -20 96 -20 125 -25
180 -31 25 -3 54 -8 65 -10 87 -17 591 -20 3610 -20 3665 0 3485 -2 3770 50
110 20 107 20 220 49 398 101 821 309 1150 565 22 17 47 37 56 44 88 66 338
309 411 397 20 25 44 55 55 66 10 12 29 36 43 54 14 19 34 45 46 59 36 45 144
207 160 241 4 8 10 17 13 20 9 7 27 39 52 90 13 25 25 47 29 50 9 7 116 230
125 260 1 3 9 23 19 45 10 22 19 47 21 57 2 9 11 30 19 47 9 17 16 32 15 33
-1 2 12 47 30 100 33 102 86 311 97 381 3 23 7 51 9 62 2 11 6 40 10 65 4 25
8 56 11 70 16 102 19 579 19 3620 0 2815 -2 3441 -13 3515 -8 50 -16 108 -19
130 -7 63 -40 226 -68 333 -70 280 -222 635 -371 870 -19 29 -34 56 -34 61 0
5 -4 11 -8 13 -4 2 -32 39 -62 83 -53 77 -74 105 -95 129 -6 6 -17 21 -25 32
-51 74 -313 345 -414 429 -26 22 -56 47 -66 55 -9 8 -32 26 -50 40 -71 54
-105 80 -115 88 -15 12 -145 95 -190 122 -22 13 -42 26 -45 30 -3 3 -27 16
-55 30 -27 14 -52 27 -55 30 -11 11 -165 85 -172 82 -5 -1 -8 3 -8 10 0 6 -3
9 -6 5 -4 -3 -19 0 -35 9 -16 8 -30 14 -31 13 -2 -1 -21 7 -43 18 -22 11 -96
40 -165 63 -69 23 -132 45 -140 48 -8 3 -19 6 -25 7 -5 2 -39 11 -75 20 -36 9
-72 18 -80 20 -99 21 -172 36 -204 41 -21 3 -48 8 -60 10 -11 2 -46 7 -76 10
-30 3 -68 8 -85 11 -32 7 -6899 16 -6906 9z"/>
</g>
</svg>
